<svg viewBox="0 0 50 50" fill="none" xmlns="http://www.w3.org/2000/svg">
    <path fill-rule="evenodd" clip-rule="evenodd" d="M35 19C35 24.5228 30.5228 29 25 29C19.4772 29 15 24.5228 15 19C15 13.4772 19.4772 9 25 9C30.5228 9 35 13.4772 35 19ZM34 19C34 23.9706 29.9706 28 25 28C20.0294 28 16 23.9706 16 19C16 14.0294 20.0294 10 25 10C29.9706 10 34 14.0294 34 19Z" fill="#EEEEEE"/>
    <path fill-rule="evenodd" clip-rule="evenodd" d="M50 25C50 38.8071 38.8071 50 25 50C11.1929 50 0 38.8071 0 25C0 11.1929 11.1929 0 25 0C38.8071 0 50 11.1929 50 25ZM1.25 25C1.25 29.8448 2.70066 34.3508 5.19131 38.1073C5.2002 38.1004 5.20936 38.0936 5.21883 38.0872C17.8885 29.4712 32.1115 29.4707 44.7812 38.0872C44.7906 38.0936 44.7998 38.1004 44.8087 38.1073C47.2993 34.3508 48.75 29.8448 48.75 25C48.75 11.8832 38.1168 1.25 25 1.25C11.8832 1.25 1.25 11.8832 1.25 25ZM5.78117 38.9141C5.77428 38.9188 5.76732 38.9233 5.76029 38.9276C10.0761 44.8792 17.086 48.75 25 48.75C32.914 48.75 39.9239 44.8792 44.2397 38.9276C44.2327 38.9233 44.2257 38.9188 44.2188 38.9141C31.8885 30.5284 18.1115 30.5288 5.78117 38.9141Z" fill="#EEEEEE"/>
    <path d="M5.76029 38.9276C5.76732 38.9233 5.77428 38.9188 5.78117 38.9141C18.1115 30.5288 31.8885 30.5284 44.2188 38.9141C44.2257 38.9188 44.2327 38.9233 44.2397 38.9276C39.9239 44.8792 32.914 48.75 25 48.75C17.086 48.75 10.0761 44.8792 5.76029 38.9276Z" fill="#999999"/>
    <path d="M25 28C29.9706 28 34 23.9706 34 19C34 14.0294 29.9706 10 25 10C20.0294 10 16 14.0294 16 19C16 23.9706 20.0294 28 25 28Z" fill="#999999"/>
    <path fill-rule="evenodd" clip-rule="evenodd" d="M5.19131 38.1073C2.70066 34.3508 1.25 29.8448 1.25 25C1.25 11.8832 11.8832 1.25 25 1.25C38.1168 1.25 48.75 11.8832 48.75 25C48.75 29.8448 47.2993 34.3508 44.8087 38.1073C44.7998 38.1004 44.7906 38.0936 44.7812 38.0872C32.1115 29.4707 17.8885 29.4712 5.21883 38.0872C5.20936 38.0936 5.2002 38.1004 5.19131 38.1073ZM35 19C35 24.5228 30.5228 29 25 29C19.4772 29 15 24.5228 15 19C15 13.4772 19.4772 9 25 9C30.5228 9 35 13.4772 35 19Z" fill="#C2C2C2"/>
</svg>
